<svg viewBox="0 0 200 200" xmlns="http://www.w3.org/2000/svg" xmlns:xlink="http://www.w3.org/1999/xlink">
    <mask id="mask0" mask-type="alpha">
        <path d="M32.7,-22.4C43.2,-12.9,53,0.7,52.3,15.3C51.6,29.8,40.4,45.3,26.3,50.5C12.2,55.7,-4.8,50.5,-21.6,43.1C-38.4,35.7,-55,26,-58.6,12.7C-62.1,-0.6,-52.7,-17.5,-40.7,-27.3C-28.8,-37.1,-14.4,-39.8,-1.6,-38.5C11.1,-37.1,22.2,-31.9,32.7,-22.4Z"/>
    </mask>
    <g mask="url(#mask0)">
        <path d="M32.7,-22.4C43.2,-12.9,53,0.7,52.3,15.3C51.6,29.8,40.4,45.3,26.3,50.5C12.2,55.7,-4.8,50.5,-21.6,43.1C-38.4,35.7,-55,26,-58.6,12.7C-62.1,-0.6,-52.7,-17.5,-40.7,-27.3C-28.8,-37.1,-14.4,-39.8,-1.6,-38.5C11.1,-37.1,22.2,-31.9,32.7,-22.4Z"/>
        <image href=""/>
    </g>
</svg>